<svg xmlns="http://www.w3.org/2000/svg" enable-background="new 0 0 64 64" viewBox="0 0 64 64"><circle cx="32.06" cy="32.09" r="28.99" fill="#c466ff" class="colorf0134d svgShape"/><path fill="#f5f0e3" d="M39.37 24.25l1.29 4.83c.1.37.4.65.77.72.07.01.13.02.2.02.31 0 .6-.14.79-.39l3.05-3.96 4.99.27c.39.02.74-.18.93-.51.19-.33.17-.74-.05-1.06l-2.83-4.13 1.8-4.67c.14-.35.06-.76-.2-1.04-.26-.28-.65-.39-1.02-.28l-4.8 1.41-3.88-3.15c-.3-.24-.7-.29-1.05-.13-.35.16-.57.5-.58.88l-.14 5-4.2 2.72C34.13 21 33.96 21.37 34 21.75c.04.38.3.7.66.83L39.37 24.25zM51.96 39.4c-.16-.35-.5-.57-.88-.58l-5-.14-2.72-4.2c-.21-.32-.58-.5-.96-.45-.38.04-.7.3-.83.66l-1.68 4.71-4.83 1.29c-.37.1-.65.4-.72.77s.07.76.37.99l3.96 3.05-.27 4.99c-.02.38.18.74.51.92.15.09.32.13.49.13.2 0 .4-.06.57-.17l4.13-2.83 4.67 1.8c.35.14.76.06 1.04-.2.28-.26.39-.65.28-1.02l-1.41-4.8 3.15-3.88C52.06 40.15 52.12 39.75 51.96 39.4zM29.45 41.61l-4.71-1.67-1.29-4.83c-.1-.37-.4-.65-.77-.72-.38-.08-.76.07-.99.37l-3.05 3.96-4.99-.27c-.39-.02-.74.18-.93.51s-.17.74.05 1.05l2.83 4.13-1.8 4.67c-.14.36-.06.76.2 1.04.26.28.65.39 1.02.28l4.8-1.41 3.88 3.15c.18.15.4.22.63.22.14 0 .28-.03.42-.09.35-.16.57-.5.58-.88l.14-5 4.2-2.72c.32-.21.49-.58.45-.96S29.81 41.74 29.45 41.61zM18.03 25.5l2.72 4.2c.19.29.5.46.84.46.04 0 .08 0 .12-.01.38-.04.7-.3.83-.66l1.68-4.71 4.83-1.29c.37-.1.65-.4.72-.77.07-.37-.07-.76-.37-.99l-3.96-3.05.27-4.99c.02-.38-.18-.74-.51-.93-.33-.19-.74-.17-1.06.05l-4.13 2.83-4.67-1.8c-.35-.14-.76-.06-1.04.2-.28.26-.39.65-.28 1.02l1.41 4.8-3.15 3.88c-.24.3-.29.7-.13 1.05.16.35.5.57.88.58L18.03 25.5z" class="colorf5f0e3 svgShape"/><path fill="#ec5eff" d="M43.12 23.51c.68 0 1.33-.27 1.81-.75s.75-1.13.75-1.81c0-.69-.27-1.33-.75-1.81-.97-.97-2.66-.97-3.62 0-.48.48-.75 1.13-.75 1.81 0 .68.27 1.33.75 1.81C41.79 23.24 42.43 23.51 43.12 23.51zM45.01 41.34c-.97-.97-2.66-.97-3.62 0-1 1-1 2.63 0 3.62.48.48 1.13.75 1.81.75s1.33-.27 1.81-.75C46.01 43.97 46.01 42.34 45.01 41.34zM19.18 41.42c-1 1-1 2.63 0 3.62.48.48 1.13.75 1.81.75s1.33-.27 1.81-.75c1-1 1-2.63 0-3.62C21.84 40.45 20.15 40.45 19.18 41.42zM20.91 23.59c.68 0 1.33-.27 1.81-.75 1-1 1-2.63 0-3.62-.97-.97-2.66-.97-3.62 0-.48.48-.75 1.13-.75 1.81s.27 1.33.75 1.81C19.58 23.32 20.23 23.59 20.91 23.59zM32.06 26.42c-3.08 0-5.58 2.5-5.58 5.58 0 3.08 2.5 5.58 5.58 5.58s5.58-2.5 5.58-5.58C37.64 28.92 35.13 26.42 32.06 26.42z" class="colorff6f5e svgShape"/><path fill="#c466ff" d="M32.06,3.11c-0.02,0-0.04,0-0.06,0v57.97c0.02,0,0.04,0,0.06,0c15.98,0,28.99-13,28.99-28.99     S48.04,3.11,32.06,3.11z" class="colord71647 svgShape"/><path fill="#f5f0e3" d="M39.37 24.25l1.29 4.83c.1.37.4.65.77.72.07.01.13.02.2.02.31 0 .6-.14.79-.39l3.05-3.96 4.99.27c.39.02.74-.18.93-.51.19-.33.17-.74-.05-1.06l-2.83-4.13 1.8-4.67c.14-.35.06-.76-.2-1.04-.26-.28-.65-.39-1.02-.28l-4.8 1.41-3.88-3.15c-.3-.24-.7-.29-1.05-.13-.35.16-.57.5-.58.88l-.14 5-4.2 2.72C34.13 21 33.96 21.37 34 21.75c.04.38.3.7.66.83L39.37 24.25zM51.96 39.4c-.16-.35-.5-.57-.88-.58l-5-.14-2.72-4.2c-.21-.32-.58-.5-.96-.45-.38.04-.7.3-.83.66l-1.68 4.71-4.83 1.29c-.37.1-.65.4-.72.77s.07.76.37.99l3.96 3.05-.27 4.99c-.02.38.18.74.51.92.15.09.32.13.49.13.2 0 .4-.06.57-.17l4.13-2.83 4.67 1.8c.35.14.76.06 1.04-.2.28-.26.39-.65.28-1.02l-1.41-4.8 3.15-3.88C52.06 40.15 52.12 39.75 51.96 39.4z" class="colordedad0 svgShape"/><path fill="#f5f0e3" d="M29.45,41.61l-4.71-1.67l-1.29-4.83c-0.1-0.37-0.4-0.65-0.77-0.72c-0.38-0.08-0.76,0.07-0.99,0.37     l-3.05,3.96l-4.99-0.27c-0.39-0.02-0.74,0.18-0.93,0.51s-0.17,0.74,0.05,1.05l2.83,4.13l-1.8,4.67c-0.14,0.36-0.06,0.76,0.2,1.04     c0.26,0.28,0.65,0.39,1.02,0.28l4.8-1.41l3.88,3.15c0.18,0.15,0.4,0.22,0.63,0.22c0.14,0,0.28-0.03,0.42-0.09     c0.35-0.16,0.57-0.5,0.58-0.88l0.14-5l4.2-2.72c0.32-0.21,0.49-0.58,0.45-0.96S29.81,41.74,29.45,41.61z" class="colorf5f0e3 svgShape"/><path fill="#ec5eff" d="M43.12 23.51c.68 0 1.33-.27 1.81-.75s.75-1.13.75-1.81c0-.69-.27-1.33-.75-1.81-.97-.97-2.66-.97-3.62 0-.48.48-.75 1.13-.75 1.81 0 .68.27 1.33.75 1.81C41.79 23.24 42.43 23.51 43.12 23.51zM45.01 41.34c-.97-.97-2.66-.97-3.62 0-1 1-1 2.63 0 3.62.48.48 1.13.75 1.81.75s1.33-.27 1.81-.75C46.01 43.97 46.01 42.34 45.01 41.34z" class="colordc6457 svgShape"/><path fill="#ec5eff" d="M19.18,41.42c-1,1-1,2.63,0,3.62c0.48,0.48,1.13,0.75,1.81,0.75s1.33-0.27,1.81-0.75c1-1,1-2.63,0-3.62     C21.84,40.45,20.15,40.45,19.18,41.42z" class="colorff6f5e svgShape"/><path fill="#ec5eff" d="M32.06,26.42c-0.02,0-0.04,0-0.06,0v11.16c0.02,0,0.04,0,0.06,0c3.08,0,5.58-2.5,5.58-5.58     C37.64,28.92,35.13,26.42,32.06,26.42z" class="colordc6457 svgShape"/></svg>