<svg xmlns="http://www.w3.org/2000/svg" viewBox="0 0 32 32"><g data-name="Layer 4" fill="#5d338a" class="color000 svgShape"><path fill="#edbe9d" d="M14,22.73h3.51a2.14,2.14,0,0,0,2.14-2.14h0a2.14,2.14,0,0,0-2.14-2.14h-9L5.61,20.76v6.87l2.91,1.92H24.23l5.61-6.46a2.51,2.51,0,0,0-.27-3.55h0a2.51,2.51,0,0,0-3.14-.09l-3,2.25L20,20.59" class="coloredbe9d svgShape"/><path d="M24.23,30.55H8.52A1,1,0,0,1,8,30.38L5.06,28.46a1,1,0,0,1-.45-.83V20.76A1,1,0,0,1,5,20L7.9,17.67a1,1,0,0,1,.62-.22h9a3.14,3.14,0,0,1,3,2.25l2.79.88,2.55-1.93a3.53,3.53,0,0,1,4.39.12,3.51,3.51,0,0,1,.38,5L25,30.2A1,1,0,0,1,24.23,30.55Zm-15.41-2h15l5.31-6.12a1.51,1.51,0,0,0-.16-2.14A1.51,1.51,0,0,0,27,20.24l-3,2.25a1,1,0,0,1-.9.16l-2.79-.87a3.14,3.14,0,0,1-2.91,2H14a1,1,0,1,1,0-2h3.51a1.14,1.14,0,0,0,0-2.27H8.87L6.61,21.24v5.85Z" fill="#5d338a" class="color000 svgShape"/><rect width="13.05" height="4.07" x="-2.95" y="21.97" fill="#bb5eef" transform="rotate(90 3.58 24)" class="color5eadef svgShape"/><path d="M5.61,31.52H1.54a1,1,0,0,1-1-1v-13a1,1,0,0,1,1-1H5.61a1,1,0,0,1,1,1v13A1,1,0,0,1,5.61,31.52Zm-3.07-2H4.61v-11H2.54Z" fill="#5d338a" class="color000 svgShape"/><path fill="#dd55f9" d="M23,18.34l-3.27-3.12a7.15,7.15,0,1,1,3.14-2.44Z" class="colorf9ce55 svgShape"/><path d="M23 19.34a1 1 0 0 1-.69-.28l-2.83-2.69a8.15 8.15 0 1 1 4.39-3.29L24 18.32a1 1 0 0 1-1 1zm-3.28-5.12a1 1 0 0 1 .69.28L21.9 16l-.08-3.14A1 1 0 0 1 22 12.2a6.12 6.12 0 1 0-6.79 2.25 6 6 0 0 0 4.1-.15A1 1 0 0 1 19.68 14.23zM5.71 8a1 1 0 0 1-1-1V4.6a1 1 0 0 1 2 0V7A1 1 0 0 1 5.71 8z" fill="#5d338a" class="color000 svgShape"/><path d="M6.9 6.79H4.53a1 1 0 0 1 0-2H6.9a1 1 0 0 1 0 2zM29.27 15.65a1 1 0 0 1-1-1V12.28a1 1 0 1 1 2 0v2.38A1 1 0 0 1 29.27 15.65z" fill="#5d338a" class="color000 svgShape"/><path d="M30.46,14.46H28.08a1,1,0,0,1,0-2h2.38a1,1,0,0,1,0,2Z" fill="#5d338a" class="color000 svgShape"/></g></svg>