<svg xmlns="http://www.w3.org/2000/svg" enable-background="new 0 0 64 64" viewBox="0 0 64 64"><path fill="none" stroke="#484c55" stroke-linecap="round" stroke-linejoin="round" stroke-miterlimit="10" stroke-width="2" d="M11.6,41.6c0-11.2,9.1-20.4,20.4-20.4s20.4,9.1,20.4,20.4" class="colorStroke484c55 svgStroke"/><line x1="32" x2="32" y1="21.2" y2="13.3" fill="none" stroke="#484c55" stroke-linecap="round" stroke-linejoin="round" stroke-miterlimit="10" stroke-width="2" class="colorStroke484c55 svgStroke"/><circle cx="7.5" cy="17.1" r="6.1" fill="#ffd249" class="colorffd249 svgShape"/><line x1="52.1" x2="46.4" y1="21.5" y2="27.2" fill="none" stroke="#484c55" stroke-linecap="round" stroke-linejoin="round" stroke-miterlimit="10" stroke-width="2" class="colorStroke484c55 svgStroke"/><line x1="17.6" x2="11.9" y1="27.2" y2="21.5" fill="none" stroke="#484c55" stroke-linecap="round" stroke-linejoin="round" stroke-miterlimit="10" stroke-width="2" class="colorStroke484c55 svgStroke"/><circle cx="32" cy="7.1" r="6.1" fill="#4aabf0" stroke="#484c55" stroke-linecap="round" stroke-linejoin="round" stroke-miterlimit="10" stroke-width="2" class="color4aabf0 svgShape colorStroke484c55 svgStroke"/><circle cx="56.5" cy="17.1" r="6.1" fill="#fa5d66" class="colorfa5d66 svgShape"/><path fill="none" stroke="#484c55" stroke-linecap="round" stroke-linejoin="round" stroke-miterlimit="10" stroke-width="2" d="M61.4 13.6c.7 1 1.1 2.2 1.1 3.5 0 3.4-2.7 6.1-6.1 6.1s-6.1-2.7-6.1-6.1S53 11 56.4 11M12.5 13.6c.7 1 1.1 2.2 1.1 3.5 0 3.4-2.7 6.1-6.1 6.1s-6.1-2.7-6.1-6.1S4.2 11 7.5 11M20.5 60.6V35.7c0-1.1 1.1-2.1 2.4-2.1h20.6v25.1" class="colorStroke484c55 svgStroke"/><path fill="none" stroke="#484c55" stroke-linecap="round" stroke-linejoin="round" stroke-miterlimit="10" stroke-width="2" d="M43.5,58.8l-1.4,2.1l1.4,2.1H22.8c-1.3,0-2.4-0.9-2.4-2.1v-0.1c0-1.1,1.1-2.1,2.4-2.1L43.5,58.8L43.5,58.8z" class="colorStroke484c55 svgStroke"/><line x1="24.8" x2="24.8" y1="33.7" y2="58.4" fill="none" stroke="#484c55" stroke-linecap="round" stroke-linejoin="round" stroke-miterlimit="10" stroke-width="2" class="colorStroke484c55 svgStroke"/><line x1="30.4" x2="37.9" y1="40.1" y2="40.1" fill="none" stroke="#484c55" stroke-linecap="round" stroke-linejoin="round" stroke-miterlimit="10" stroke-width="2" class="colorStroke484c55 svgStroke"/><line x1="30.4" x2="37.9" y1="46.6" y2="46.6" fill="none" stroke="#484c55" stroke-linecap="round" stroke-linejoin="round" stroke-miterlimit="10" stroke-width="2" class="colorStroke484c55 svgStroke"/><line x1="30.4" x2="37.9" y1="53.2" y2="53.2" fill="none" stroke="#484c55" stroke-linecap="round" stroke-linejoin="round" stroke-miterlimit="10" stroke-width="2" class="colorStroke484c55 svgStroke"/></svg>