<svg xmlns="http://www.w3.org/2000/svg" width="64" height="64" enable-background="new 0 0 64 64" viewBox="0 0 64 64"><path fill="#cf78e8" d="M5.781,13.739c0.021,0.041,0.041,0.072,0.052,0.113c0.753,1.569,1.796,3.458,3.148,5.626   c0.031,0.052,0.062,0.103,0.093,0.155c0.021,0.021,0.031,0.052,0.041,0.072c1.012,1.6,1.972,3.014,2.622,3.954   c0.723-1.053,1.837-2.694,2.963-4.521c0.01-0.01,0.021-0.031,0.031-0.041c1.228-1.992,2.199-3.757,2.901-5.234   c0.031-0.072,0.062-0.134,0.103-0.196c0.093-0.207,0.186-0.413,0.268-0.609c0.795-1.817,0.96-2.787,0.96-3.282   c0-3.685-3.241-6.679-7.226-6.679c-3.985,0-7.226,2.994-7.226,6.679c0,0.495,0.165,1.466,0.96,3.282   C5.564,13.275,5.667,13.502,5.781,13.739z M11.737,5.574c2.519,0,4.573,2.054,4.573,4.583c0,1.899-1.187,3.613-2.952,4.274   c-0.01,0-0.01,0.01-0.021,0.01s-0.021,0.01-0.031,0.01c-0.506,0.196-1.032,0.289-1.569,0.289c-0.537,0-1.074-0.093-1.579-0.289   c-0.01,0-0.021-0.01-0.031-0.01c-0.01,0-0.01-0.01-0.021-0.01c-1.765-0.65-2.942-2.374-2.942-4.274   C7.164,7.628,9.218,5.574,11.737,5.574z" class="color78BFE8 svgShape"/><path fill="#929193" d="M43.179,56.299v1.579c0,0.568-0.465,1.032-1.032,1.032H21.853c-0.568,0-1.032-0.464-1.032-1.032v-1.579H0   v0.465c0,2.24,3.458,4.139,7.535,4.139h48.939c4.077,0,7.525-1.899,7.525-4.139v-0.465H43.179z" class="color919293 svgShape"/><path fill="#929193" d="M22.885,55.267v1.579h18.23v-1.579c0-0.568,0.454-1.032,1.032-1.032h18.416V15.277H19.252   c-0.506,1.012-1.125,2.137-1.837,3.365h38.431c0.568,0,1.032,0.465,1.032,1.032v30.152c0,0.568-0.465,1.032-1.032,1.032H8.165   c-0.568,0-1.032-0.465-1.032-1.032V20.408c-1.197-1.93-2.168-3.644-2.901-5.13H3.458v38.957h18.395   C22.431,54.235,22.885,54.699,22.885,55.267z" class="color919293 svgShape"/><path fill="#ffffff" d="M11.737,26.488c-0.33,0-0.64-0.155-0.836-0.423c-0.01-0.01-0.712-0.991-1.703-2.467v25.197h45.615V20.707   H16.155c-1.848,2.963-3.561,5.326-3.582,5.357C12.377,26.333,12.067,26.488,11.737,26.488z M32,22.018   c5.12,0,9.29,3.923,9.29,8.754c0,1.022-0.382,2.364-1.146,4.108c-0.753,1.734-1.91,3.871-3.427,6.328   c-1.961,3.179-3.871,5.822-3.881,5.843C32.64,47.319,32.33,47.484,32,47.484c-0.341,0-0.65-0.165-0.847-0.433   c-0.01-0.021-1.703-2.364-3.52-5.264c-1.713-2.725-2.983-5.058-3.788-6.916c-0.764-1.734-1.135-3.076-1.135-4.098   C22.71,25.941,26.87,22.018,32,22.018z" class="colorD3D3D3 svgShape"/><path fill="#c361ef" d="M29.378,40.681c1.001,1.6,1.961,3.024,2.622,3.974c0.723-1.053,1.827-2.705,2.963-4.532   c1.466-2.374,2.581-4.418,3.293-6.07c0.795-1.817,0.97-2.787,0.97-3.283c0-3.685-3.252-6.689-7.226-6.689   c-3.985,0-7.226,3.004-7.226,6.689c0,0.495,0.165,1.466,0.96,3.272C26.498,35.819,27.726,38.049,29.378,40.681z M32,26.56   c2.519,0,4.563,2.065,4.563,4.583c0,1.899-1.177,3.623-2.952,4.274c-0.01,0.01-0.01,0.01-0.021,0.01   c-0.062,0.021-0.124,0.041-0.186,0.052c-0.454,0.176-0.929,0.248-1.404,0.248c-0.496,0-0.981-0.083-1.435-0.248   c-0.062-0.01-0.114-0.021-0.176-0.052c-0.01,0-0.01,0-0.021-0.01c-1.765-0.65-2.942-2.374-2.942-4.274   C27.427,28.625,29.471,26.56,32,26.56z" class="colorEF6183 svgShape"/><path fill="#c361ef" d="M31.102,33.497c0.01,0,0.01,0.01,0.021,0.01c0.547,0.206,1.166,0.217,1.734,0c0.01,0,0.01-0.01,0.021-0.01   c0.97-0.361,1.621-1.301,1.621-2.354c0-1.383-1.125-2.519-2.498-2.519c-1.383,0-2.508,1.135-2.508,2.519   C29.492,32.196,30.132,33.136,31.102,33.497z" class="colorEF6183 svgShape"/></svg>