<svg xmlns="http://www.w3.org/2000/svg" enable-background="new 0 0 128 128" viewBox="0 0 128 128"><g opacity=".2" fill="#000000" class="color000 svgShape"><circle cx="64.2" cy="64" r="41" fill="#dc88f5" class="color9CE3FF svgShape"/><path fill="#04478b" d="M64.2,106c-23.2,0-42-18.8-42-42s18.8-42,42-42s42,18.8,42,42S87.3,106,64.2,106z M64.2,24c-22.1,0-40,17.9-40,40s17.9,40,40,40s40-17.9,40-40S86.2,24,64.2,24z" class="color046D8B svgShape"/><rect width="2" height="82" x="63.2" y="23" fill="#04478b" class="color046D8B svgShape"/><rect width="82" height="2" x="23.2" y="63" fill="#04478b" class="color046D8B svgShape"/><path fill="#04478b" d="M64.2,106c-12.1,0-22-18.8-22-42s9.9-42,22-42s22,18.8,22,42S76.3,106,64.2,106z M64.2,24c-11,0-20,17.9-20,40s9,40,20,40s20-17.9,20-40S75.2,24,64.2,24z" class="color046D8B svgShape"/><path fill="#04478b" d="M64.2 48c-12.6 0-24.4-3.3-32.4-9l1.2-1.6c7.7 5.5 19 8.7 31.2 8.7 12.3 0 23.7-3.2 31.4-8.8l1.2 1.6C88.8 44.7 76.9 48 64.2 48zM32.9 90.7L31.8 89c8-5.8 19.8-9 32.4-9 12.5 0 24.2 3.3 32.2 8.9l-1.2 1.6c-7.7-5.4-19-8.5-31.1-8.5C52 82 40.6 85.2 32.9 90.7z" class="color046D8B svgShape"/></g><path fill="#f3f4e0" d="M85.2,79h-42c-2.2,0-4-1.8-4-4V49c0-2.2,1.8-4,4-4h42c2.2,0,4,1.8,4,4v26C89.2,77.2,87.4,79,85.2,79z" class="colorE0E6F4 svgShape"/><path fill="#ba53de" d="M85.2,80h-42c-2.8,0-5-2.2-5-5V49c0-2.8,2.2-5,5-5h42c2.8,0,5,2.2,5,5v26C90.2,77.8,87.9,80,85.2,80z M43.2,46c-1.7,0-3,1.3-3,3v26c0,1.7,1.3,3,3,3h42c1.7,0,3-1.3,3-3V49c0-1.7-1.3-3-3-3H43.2z" class="color1A2D54 svgShape"/><path fill="#bbc3cb" d="M44.2,75V49c0-1.7,1.3-3,3-3h-4c-1.7,0-3,1.3-3,3v26c0,1.7,1.3,3,3,3h4C45.5,78,44.2,76.7,44.2,75z" class="colorBBC0CB svgShape"/><path fill="#c5dff9" d="M85.2,79h-42c-2.2,0-4-1.8-4-4v-4h50v4C89.2,77.2,87.4,79,85.2,79z" class="colorC5F9F3 svgShape"/><path fill="#ba53de" d="M85.2,80h-42c-2.8,0-5-2.2-5-5v-5h52v5C90.2,77.8,87.9,80,85.2,80z M40.2,72v3c0,1.7,1.3,3,3,3h42c1.7,0,3-1.3,3-3v-3H40.2z" class="color1A2D54 svgShape"/><path fill="#a4b9cf" d="M44.2,75v-3h-4v3c0,1.7,1.3,3,3,3h4C45.5,78,44.2,76.7,44.2,75z" class="colorA4CFCA svgShape"/><circle cx="64.2" cy="75" r="2" fill="#8394a6" class="color83A6A2 svgShape"/><path fill="#ba53de" d="M64.2,78c-1.7,0-3-1.3-3-3s1.3-3,3-3s3,1.3,3,3S65.8,78,64.2,78z M64.2,74c-0.6,0-1,0.4-1,1s0.4,1,1,1s1-0.4,1-1S64.7,74,64.2,74z" class="color1A2D54 svgShape"/><polygon fill="#8394a6" points="70.2 79 72.2 85 56.2 85 58.2 79" class="color83A6A2 svgShape"/><path fill="#ba53de" d="M73.6,86H54.8l2.7-8h13.4L73.6,86z M57.6,84h13.2l-1.3-4H58.9L57.6,84z" class="color1A2D54 svgShape"/><path fill="#c5dff9" d="M78.2,89h-28v0c0-2.2,1.8-4,4-4h20C76.4,85,78.2,86.8,78.2,89L78.2,89z" class="colorC5F9F3 svgShape"/><path fill="#ba53de" d="M79.2,90h-30v-1c0-2.8,2.2-5,5-5h20c2.8,0,5,2.2,5,5V90z M51.3,88H77c-0.4-1.2-1.5-2-2.8-2h-20C52.9,86,51.8,86.8,51.3,88z" class="color1A2D54 svgShape"/><path fill="#a4b9cf" d="M58.2,86h-4c-1.3,0-2.4,0.8-2.8,2h4C55.8,86.8,56.9,86,58.2,86z" class="colorA4CFCA svgShape"/><g fill="#000000" class="color000 svgShape"><path fill="#ffffff" d="M89.8,39h-18c-3.3,0-6,2.7-6,6s2.7,6,6,6v6l7-6h11c3.3,0,6-2.7,6-6S93.1,39,89.8,39z" class="colorF8B4AB svgShape"/><path fill="#ba53de" d="M71.8,58c-0.1,0-0.3,0-0.4-0.1c-0.4-0.2-0.6-0.5-0.6-0.9v-5.1c-3.4-0.5-6-3.4-6-6.9c0-3.9,3.1-7,7-7h18c3.9,0,7,3.1,7,7s-3.1,7-7,7H79.2l-6.7,5.8C72.3,57.9,72,58,71.8,58z M71.8,40c-2.8,0-5,2.2-5,5s2.2,5,5,5c0.6,0,1,0.4,1,1v3.8l5.3-4.6c0.2-0.2,0.4-0.2,0.7-0.2h11c2.8,0,5-2.2,5-5s-2.2-5-5-5H71.8z" class="color1A2D54 svgShape"/><path fill="#ff6699" d="M76.8,51.4V50h-1c-2.8,0-5-2.2-5-5s2.2-5,5-5h-4c-2.8,0-5,2.2-5,5s2.2,5,5,5c0,0,0.5,0.1,0.7,0.3c0.5,0.4,0.3,4.6,0.3,4.6L76.8,51.4z" class="colorCF968F svgShape"/><path fill="#ba53de" d="M81.8 44h-8c-.6 0-1-.4-1-1s.4-1 1-1h8c.6 0 1 .4 1 1S82.4 44 81.8 44zM89.8 48h-16c-.6 0-1-.4-1-1s.4-1 1-1h16c.6 0 1 .4 1 1S90.4 48 89.8 48z" class="color1A2D54 svgShape"/></g><g fill="#000000" class="color000 svgShape"><path fill="#ffffff" d="M32.2,50h18c3.3,0,6,2.7,6,6s-2.7,6-6,6v6l-7-6h-11c-3.3,0-6-2.7-6-6S28.9,50,32.2,50z" class="colorFCE19A svgShape"/><path fill="#ba53de" d="M50.2,69c-0.2,0-0.5-0.1-0.7-0.2L42.8,63H32.2c-3.9,0-7-3.1-7-7s3.1-7,7-7h18c3.9,0,7,3.1,7,7c0,3.5-2.6,6.4-6,6.9V68c0,0.4-0.2,0.7-0.6,0.9C50.5,69,50.3,69,50.2,69z M32.2,51c-2.8,0-5,2.2-5,5s2.2,5,5,5h11c0.2,0,0.5,0.1,0.7,0.2l5.3,4.6V62c0-0.6,0.4-1,1-1c2.8,0,5-2.2,5-5s-2.2-5-5-5H32.2z" class="color1A2D54 svgShape"/><path fill="#ff6699" d="M31.2,56c0-2.8,2.2-5,5-5h-4c-2.8,0-5,2.2-5,5s2.2,5,5,5h4C33.4,61,31.2,58.8,31.2,56z" class="colorD2BB80 svgShape"/><path fill="#ba53de" d="M41.2 55h-8c-.6 0-1-.4-1-1s.4-1 1-1h8c.6 0 1 .4 1 1S41.7 55 41.2 55zM49.2 59h-16c-.6 0-1-.4-1-1s.4-1 1-1h16c.6 0 1 .4 1 1S49.7 59 49.2 59z" class="color1A2D54 svgShape"/></g></svg>