<svg xmlns="http://www.w3.org/2000/svg" viewBox="0 0 64 64"><path d="M58,50.5H54V43.99023c.087-5.559-4.56568-10.41226-10.01941-11.28588.03238-.03285.016-1.8669.01941-1.96833A11.044,11.044,0,0,0,48.47858,27.5H51a3.99653,3.99653,0,0,0,3.86639-3.027c5.469.0677,5.46469-8.01575,0-7.9461a3.98338,3.98338,0,0,0-1.17907-1.96973,14.87076,14.87076,0,0,0-27.37464,0,3.98338,3.98338,0,0,0-1.17907,1.96973c-5.46912-.06751-5.46461,8.01594,0,7.9461A3.9979,3.9979,0,0,0,29.00293,27.5l2.51123-.00818A11.04444,11.04444,0,0,0,36,30.736c.00334.10227-.01273,1.93635.019,1.96765a12.59574,12.59574,0,0,0-5.08215,2.10175A3.97667,3.97667,0,0,0,28,33.5H22.708a3.6077,3.6077,0,0,1,1.74711-2.02437A1.00064,1.00064,0,0,0,24.377,29.6582,6.76292,6.76292,0,0,0,15.43749,33.5H10a4.004,4.004,0,0,0-4,4v6a4.004,4.004,0,0,0,4,4H26v3H6a4,4,0,0,0,0,8H58A4.00017,4.00017,0,0,0,58,50.5Zm-1-30a2.0026,2.0026,0,0,1-2,2v-4A2.0026,2.0026,0,0,1,57,20.5Zm-34,0a2.0026,2.0026,0,0,1,2-2v4A2.0026,2.0026,0,0,1,23,20.5Zm30,3a2.0026,2.0026,0,0,1-2,2H49.78571a11.00509,11.00509,0,0,0,0-10H51a2.0026,2.0026,0,0,1,2,2ZM40,7.5a13.07789,13.07789,0,0,1,10.94708,6h-2.4685a11.057,11.057,0,0,0-16.96442.00818l-2.4613-.008A13.07794,13.07794,0,0,1,40,7.5Zm-11,18a2.0026,2.0026,0,0,1-2-2v-6a2.002,2.002,0,0,1,1.99707-2l1.21533.004a11.00408,11.00408,0,0,0,0,9.99206Zm2-5a9.00984,9.00984,0,0,1,9-9c11.9398.494,11.93632,17.50785-.00007,18A9.00986,9.00986,0,0,1,31,20.5Zm9,11a10.98831,10.98831,0,0,0,2-.1911V32.5a2,2,0,0,1-4,0l0-1.19109A10.98831,10.98831,0,0,0,40,31.5Zm-3.36737,3.13165a4.01128,4.01128,0,0,0,6.73816.0047,10.69306,10.69306,0,0,1,5.4552,2.52948A10.01293,10.01293,0,0,1,32,38.48193a8.077,8.077,0,0,0-.11456-1.8938A10.618,10.618,0,0,1,36.63263,34.63165ZM8,43.5v-6a2.0026,2.0026,0,0,1,2-2h6.17773a.9987.9987,0,0,0,.97071-.76074A4.67334,4.67334,0,0,1,21.751,31.13867c-.77671.86775-2.18658,4.14658-.18954,4.36137L28,35.5a2.0026,2.0026,0,0,1,2,2v6a2.0026,2.0026,0,0,1-2,2H10A2.0026,2.0026,0,0,1,8,43.5Zm20,4a4.004,4.004,0,0,0,4-4V41.43024a12.06615,12.06615,0,0,0,18.25323-2.69391A8.9114,8.9114,0,0,1,52,43.99023V50.5H28Zm30,9H6a2.00013,2.00013,0,0,1,.00007-4H58A2.00014,2.00014,0,0,1,58,56.5Z" fill="#681a73" class="color000 svgShape"/><path d="M28 40.5a.99943.99943 0 00-1-1H26a1 1 0 000 2h1A.99943.99943 0 0028 40.5zM17.25 39.5H15.5a1 1 0 000 2h1.75A1.0001 1.0001 0 0017.25 39.5zM22.5 39.5H20.75a1 1 0 000 2H22.5A1.0001 1.0001 0 0022.5 39.5zM12 39.5H11a1.0001 1.0001 0 000 2h1A1.0001 1.0001 0 0012 39.5z" fill="#681a73" class="color000 svgShape"/></svg>